<svg width="30" height="30" viewBox="0 0 30 30" fill="none" xmlns="http://www.w3.org/2000/svg">
<g filter="url(#filter0_dd_1_695)">
<path fill-rule="evenodd" clip-rule="evenodd" d="M5.01852 8.16671C4.73215 8.16671 4.5 7.64437 4.5 7.00004C4.5 6.35571 4.73215 5.83337 5.01852 5.83337H13.3148C13.6012 5.83337 13.8333 6.35571 13.8333 7.00004C13.8333 7.64437 13.6012 8.16671 13.3148 8.16671H5.01852ZM5.66667 15.1667C5.02233 15.1667 4.5 14.6444 4.5 14C4.5 13.3557 5.02233 12.8334 5.66667 12.8334H24.3333C24.9777 12.8334 25.5 13.3557 25.5 14C25.5 14.6444 24.9777 15.1667 24.3333 15.1667H5.66667ZM16 20.9999C16 21.5522 16.2239 21.9999 16.5 21.9999H24.5C24.7761 21.9999 25 21.5522 25 20.9999C25 20.4476 24.7761 19.9999 24.5 19.9999H16.5C16.2239 19.9999 16 20.4476 16 20.9999Z" fill="#222B45"/>
<mask id="mask0_1_695" style="mask-type:luminance" maskUnits="userSpaceOnUse" x="4" y="5" width="22" height="17">
<path fill-rule="evenodd" clip-rule="evenodd" d="M5.01852 8.16671C4.73215 8.16671 4.5 7.64437 4.5 7.00004C4.5 6.35571 4.73215 5.83337 5.01852 5.83337H13.3148C13.6012 5.83337 13.8333 6.35571 13.8333 7.00004C13.8333 7.64437 13.6012 8.16671 13.3148 8.16671H5.01852ZM5.66667 15.1667C5.02233 15.1667 4.5 14.6444 4.5 14C4.5 13.3557 5.02233 12.8334 5.66667 12.8334H24.3333C24.9777 12.8334 25.5 13.3557 25.5 14C25.5 14.6444 24.9777 15.1667 24.3333 15.1667H5.66667ZM16 20.9999C16 21.5522 16.2239 21.9999 16.5 21.9999H24.5C24.7761 21.9999 25 21.5522 25 20.9999C25 20.4476 24.7761 19.9999 24.5 19.9999H16.5C16.2239 19.9999 16 20.4476 16 20.9999Z" fill="white"/>
</mask>
<g mask="url(#mask0_1_695)">
</g>
</g>
<defs>
<filter id="filter0_dd_1_695" x="-3" y="0" width="36" height="36" filterUnits="userSpaceOnUse" color-interpolation-filters="sRGB">
<feFlood flood-opacity="0" result="BackgroundImageFix"/>
<feColorMatrix in="SourceAlpha" type="matrix" values="0 0 0 0 0 0 0 0 0 0 0 0 0 0 0 0 0 0 127 0" result="hardAlpha"/>
<feOffset dy="4"/>
<feGaussianBlur stdDeviation="2"/>
<feComposite in2="hardAlpha" operator="out"/>
<feColorMatrix type="matrix" values="0 0 0 0 0 0 0 0 0 0 0 0 0 0 0 0 0 0 0.25 0"/>
<feBlend mode="normal" in2="BackgroundImageFix" result="effect1_dropShadow_1_695"/>
<feColorMatrix in="SourceAlpha" type="matrix" values="0 0 0 0 0 0 0 0 0 0 0 0 0 0 0 0 0 0 127 0" result="hardAlpha"/>
<feOffset dy="4"/>
<feGaussianBlur stdDeviation="2"/>
<feComposite in2="hardAlpha" operator="out"/>
<feColorMatrix type="matrix" values="0 0 0 0 0 0 0 0 0 0 0 0 0 0 0 0 0 0 0.25 0"/>
<feBlend mode="normal" in2="effect1_dropShadow_1_695" result="effect2_dropShadow_1_695"/>
<feBlend mode="normal" in="SourceGraphic" in2="effect2_dropShadow_1_695" result="shape"/>
</filter>
</defs>
</svg>
